<svg version="1.1" id="Layer_1" xmlns="http://www.w3.org/2000/svg" x="0" y="0" viewBox="0 0 6499 2466" xml:space="preserve"><style>.st0{fill:#42c2cb}.st1{fill:#12b1b7}.st2{fill:#133f69}</style><path class="st0" d="M305.2 865.3l627.5-378.5 29.9 745.3-657.4 375.3zM2842.7 1600.7l-627.5 378.5-29.9-745.3 657.4-375.3z"/><path class="st1" d="M305.2 1607.4L962.6 1981l652.4-373.6-652.4-375.3zM2842.7 858.6L2185.3 485l-652.4 373.6 652.4 375.3z"/><path class="st2" d="M3202.4 841.9c17.2 14.5 25.8 34.5 25.8 59.8 0 25.4-8.6 45.3-25.8 59.7-17.2 14.4-41 21.6-71.4 21.6h-63.9v75.1h-25.2v-238h89.1c30.3.1 54.1 7.3 71.4 21.8zm-18 103.6c12.5-10.3 18.7-24.9 18.7-43.7 0-19.3-6.2-34.1-18.7-44.4-12.5-10.3-30.5-15.5-54.1-15.5h-63.2v119h63.2c23.6 0 41.6-5.1 54.1-15.4zM3321.5 887.1c11.2-6.1 25.1-9.2 41.6-9.2v23.5l-5.8-.3c-18.8 0-33.5 5.8-44.2 17.3-10.7 11.6-16 27.8-16 48.6v91.1H3273V879.3h23.1v35c5.8-12 14.2-21 25.4-27.2zM3406.4 835.1c-3.4-3.4-5.1-7.5-5.1-12.2 0-4.5 1.7-8.5 5.1-11.9 3.4-3.4 7.6-5.1 12.6-5.1s9.2 1.6 12.6 4.9c3.4 3.3 5.1 7.2 5.1 11.7 0 5-1.7 9.2-5.1 12.6-3.4 3.4-7.6 5.1-12.6 5.1s-9.2-1.7-12.6-5.1zm.3 44.2h24.1v178.8h-24.1V879.3zM3774.1 897.3c12.8 12.9 19.2 32 19.2 57.1v103.7h-24.1V956.8c0-18.6-4.5-32.8-13.4-42.5-9-9.7-21.6-14.6-37.9-14.6-18.6 0-33.2 5.7-43.9 17.2-10.7 11.4-16 27.3-16 47.4v93.8h-24.1V956.8c0-18.6-4.5-32.8-13.4-42.5-9-9.7-21.7-14.6-38.3-14.6-18.4 0-32.9 5.7-43.7 17.2-10.8 11.4-16.2 27.3-16.2 47.4v93.8h-24.1V879.3h23.1V912c6.3-10.9 15.2-19.3 26.5-25.2 11.3-5.9 24.4-8.8 39.1-8.8 15 0 27.9 3.2 38.9 9.5s19.2 15.8 24.7 28.2c6.6-11.8 16-21 28.4-27.7 12.4-6.7 26.5-10 42.3-10 22.4 0 40.1 6.4 52.9 19.3zM3975.2 895.5c12.5 11.7 18.7 29 18.7 51.9v110.8h-23.1v-27.9c-5.4 9.3-13.4 16.5-24 21.8-10.5 5.2-23.1 7.8-37.6 7.8-19.9 0-35.8-4.8-47.6-14.3-11.8-9.5-17.7-22.1-17.7-37.7 0-15.2 5.5-27.4 16.5-36.7 11-9.3 28.5-13.9 52.5-13.9h56.8v-10.9c0-15.4-4.3-27.1-12.9-35.2-8.6-8-21.2-12.1-37.7-12.1-11.3 0-22.2 1.9-32.6 5.6-10.4 3.7-19.4 8.9-26.9 15.5l-10.9-18c9.1-7.7 19.9-13.7 32.6-17.9 12.7-4.2 26.1-6.3 40.1-6.3 23.4 0 41.3 5.8 53.8 17.5zm-27.2 136c9.7-6.2 17-15.2 21.8-27v-29.2h-56.1c-30.6 0-45.9 10.7-45.9 32 0 10.4 4 18.6 11.9 24.7 7.9 6 19 9 33.3 9 13.6-.2 25.2-3.3 35-9.5zM4125.8 968.4l-42.2 38.8v51h-24.1V805.9h24.1v171l106.8-97.6h29.9l-76.5 73.1 83.6 105.7h-29.6l-72-89.7zM4376.7 895.5c12.5 11.7 18.7 29 18.7 51.9v110.8h-23.1v-27.9c-5.4 9.3-13.4 16.5-24 21.8-10.5 5.2-23.1 7.8-37.6 7.8-19.9 0-35.8-4.8-47.6-14.3-11.8-9.5-17.7-22.1-17.7-37.7 0-15.2 5.5-27.4 16.5-36.7 11-9.3 28.5-13.9 52.5-13.9h56.8v-10.9c0-15.4-4.3-27.1-12.9-35.2-8.6-8-21.2-12.1-37.7-12.1-11.3 0-22.2 1.9-32.6 5.6-10.4 3.7-19.4 8.9-26.9 15.5l-10.9-18c9.1-7.7 19.9-13.7 32.6-17.9 12.7-4.2 26.1-6.3 40.1-6.3 23.4 0 41.4 5.8 53.8 17.5zm-27.2 136c9.7-6.2 17-15.2 21.8-27v-29.2h-56.1c-30.6 0-45.9 10.7-45.9 32 0 10.4 4 18.6 11.9 24.7 7.9 6 19 9 33.3 9 13.6-.2 25.3-3.3 35-9.5zM4509.5 887.1c11.2-6.1 25.1-9.2 41.6-9.2v23.5l-5.8-.3c-18.8 0-33.5 5.8-44.2 17.3-10.7 11.6-16 27.8-16 48.6v91.1H4461V879.3h23.1v35c5.7-12 14.2-21 25.4-27.2zM4710.6 895.5c12.5 11.7 18.7 29 18.7 51.9v110.8h-23.1v-27.9c-5.4 9.3-13.4 16.5-24 21.8-10.5 5.2-23.1 7.8-37.6 7.8-19.9 0-35.8-4.8-47.6-14.3-11.8-9.5-17.7-22.1-17.7-37.7 0-15.2 5.5-27.4 16.5-36.7 11-9.3 28.5-13.9 52.5-13.9h56.8v-10.9c0-15.4-4.3-27.1-12.9-35.2-8.6-8-21.2-12.1-37.7-12.1-11.3 0-22.2 1.9-32.6 5.6-10.4 3.7-19.4 8.9-26.9 15.5l-10.9-18c9.1-7.7 19.9-13.7 32.6-17.9 12.7-4.2 26.1-6.3 40.1-6.3 23.4 0 41.3 5.8 53.8 17.5zm-27.2 136c9.7-6.2 17-15.2 21.8-27v-29.2h-56.1c-30.6 0-45.9 10.7-45.9 32 0 10.4 4 18.6 11.9 24.7 7.9 6 19 9 33.3 9 13.6-.2 25.3-3.3 35-9.5z"/><g><path class="st2" d="M3027.7 1190.5h177.5c43.3 0 81.8 8.4 115.4 25.2s59.7 40.6 78.3 71.3c18.6 30.7 27.8 66.2 27.8 106.4s-9.3 75.7-27.8 106.4c-18.6 30.7-44.7 54.5-78.3 71.3-33.6 16.8-72.1 25.2-115.4 25.2h-177.5v-405.8zm174 342.2c29.8 0 56-5.7 78.6-17.1 22.6-11.4 40-27.6 52.2-48.7 12.2-21.1 18.3-45.5 18.3-73.4s-6.1-52.3-18.3-73.4c-12.2-21.1-29.6-37.3-52.2-48.7-22.6-11.4-48.8-17.1-78.6-17.1h-98.6v278.4h98.6zM3789.8 1464.9h-243c4.3 22.8 15.4 40.9 33.3 54.2 18 13.3 40.3 20 67 20 34 0 62.1-11.2 84.1-33.6l38.9 44.7c-13.9 16.6-31.5 29.2-52.8 37.7-21.3 8.5-45.2 12.8-71.9 12.8-34 0-64-6.8-89.9-20.3-25.9-13.5-45.9-32.4-60-56.5-14.1-24.2-21.2-51.5-21.2-82.1 0-30.2 6.9-57.3 20.6-81.5 13.7-24.2 32.8-43 57.1-56.5 24.4-13.5 51.8-20.3 82.4-20.3 30.2 0 57.1 6.7 80.9 20 23.8 13.3 42.3 32.1 55.7 56.3 13.3 24.2 20 52.1 20 83.8-.1 4.8-.5 12-1.2 21.3zm-214.3-103c-16 13.7-25.8 32-29.3 54.8h175.7c-3.1-22.4-12.6-40.6-28.4-54.5-15.9-13.9-35.6-20.9-59.2-20.9-23.2 0-42.8 6.9-58.8 20.6zM4144.7 1286.8l-132.8 309.7h-74.8l-132.8-309.7h75.4l96.3 229.7 99.2-229.7h69.5zM4471.3 1464.9h-243c4.3 22.8 15.4 40.9 33.3 54.2 18 13.3 40.3 20 67 20 34 0 62.1-11.2 84.1-33.6l38.9 44.7c-13.9 16.6-31.5 29.2-52.8 37.7-21.3 8.5-45.2 12.8-71.9 12.8-34 0-64-6.8-89.9-20.3-25.9-13.5-45.9-32.4-60-56.5-14.1-24.2-21.2-51.5-21.2-82.1 0-30.2 6.9-57.3 20.6-81.5 13.7-24.2 32.8-43 57.1-56.5 24.4-13.5 51.8-20.3 82.4-20.3 30.2 0 57.1 6.7 80.9 20 23.8 13.3 42.3 32.1 55.7 56.3 13.3 24.2 20 52.1 20 83.8-.1 4.8-.5 12-1.2 21.3zm-214.4-103c-16 13.7-25.8 32-29.3 54.8h175.7c-3.1-22.4-12.6-40.6-28.4-54.5-15.9-13.9-35.6-20.9-59.2-20.9-23.1 0-42.7 6.9-58.8 20.6zM4542 1166.2h72.5v430.4H4542v-430.4zM4764.1 1580.3c-25.1-13.5-44.8-32.4-58.9-56.5-14.1-24.2-21.2-51.5-21.2-82.1 0-30.5 7.1-57.8 21.2-81.8s33.7-42.7 58.9-56.3c25.1-13.5 53.4-20.3 84.7-20.3 31.7 0 60.1 6.8 85.3 20.3 25.1 13.5 44.8 32.3 58.9 56.3 14.1 24 21.2 51.2 21.2 81.8 0 30.5-7.1 57.9-21.2 82.1-14.1 24.2-33.7 43-58.9 56.5-25.1 13.5-53.6 20.3-85.3 20.3-31.3 0-59.5-6.8-84.7-20.3zm150.8-68.5c17.4-17.8 26.1-41.2 26.1-70.2s-8.7-52.4-26.1-70.2c-17.4-17.8-39.4-26.7-66.1-26.7-26.7 0-48.6 8.9-65.8 26.7-17.2 17.8-25.8 41.2-25.8 70.2s8.6 52.4 25.8 70.2c17.2 17.8 39.2 26.7 65.8 26.7 26.7 0 48.7-8.9 66.1-26.7zM5336.3 1303c23.8 13.2 42.4 31.7 56 55.7 13.5 24 20.3 51.6 20.3 82.9s-6.8 59.1-20.3 83.2c-13.5 24.2-32.2 42.8-56 56-23.8 13.1-50.8 19.7-80.9 19.7-41.8 0-74.8-13.9-99.2-41.8V1709h-72.5v-422.2h69v40.6c12-14.7 26.8-25.7 44.4-33.1 17.6-7.3 37-11 58.3-11 30.2 0 57.1 6.6 80.9 19.7zm-23.2 208.8c17.2-17.8 25.8-41.2 25.8-70.2s-8.6-52.4-25.8-70.2c-17.2-17.8-39.2-26.7-65.8-26.7-17.4 0-33.1 4-47 11.9-13.9 7.9-24.9 19.2-33.1 33.9-8.1 14.7-12.2 31.7-12.2 51s4.1 36.3 12.2 51c8.1 14.7 19.1 26 33.1 33.9 13.9 7.9 29.6 11.9 47 11.9 26.7.2 48.6-8.7 65.8-26.5zM5771.6 1464.9h-243c4.3 22.8 15.4 40.9 33.3 54.2 18 13.3 40.3 20 67 20 34 0 62.1-11.2 84.1-33.6l38.9 44.7c-13.9 16.6-31.5 29.2-52.8 37.7-21.3 8.5-45.2 12.8-71.9 12.8-34 0-64-6.8-89.9-20.3-25.9-13.5-45.9-32.4-60-56.5-14.1-24.2-21.2-51.5-21.2-82.1 0-30.2 6.9-57.3 20.6-81.5 13.7-24.2 32.8-43 57.1-56.5 24.4-13.5 51.8-20.3 82.4-20.3 30.2 0 57.1 6.7 80.9 20 23.8 13.3 42.3 32.1 55.7 56.3 13.3 24.2 20 52.1 20 83.8 0 4.8-.4 12-1.2 21.3zm-214.3-103c-16 13.7-25.8 32-29.3 54.8h175.7c-3.1-22.4-12.6-40.6-28.4-54.5-15.9-13.9-35.6-20.9-59.2-20.9-23.1 0-42.8 6.9-58.8 20.6zM6021.6 1283.3v69c-6.2-1.2-11.8-1.7-16.8-1.7-28.2 0-50.3 8.2-66.1 24.6-15.9 16.4-23.8 40.1-23.8 71v150.2h-72.5v-309.7h69v45.2c20.8-32.3 57.6-48.6 110.2-48.6zM6106.3 1590.7c-24-6.6-43.1-14.9-57.4-24.9l27.8-55.1c13.9 9.3 30.6 16.7 50.2 22.3 19.5 5.6 38.8 8.4 57.7 8.4 43.3 0 65-11.4 65-34.2 0-10.8-5.5-18.4-16.5-22.6-11-4.3-28.7-8.3-53.1-12.2-25.5-3.9-46.3-8.3-62.3-13.3s-30-13.8-41.8-26.4c-11.8-12.6-17.7-30.1-17.7-52.5 0-29.4 12.3-52.9 36.8-70.5 24.5-17.6 57.7-26.4 99.5-26.4 21.3 0 42.5 2.4 63.8 7.3 21.3 4.8 38.7 11.3 52.2 19.4l-27.8 55.1c-26.3-15.5-55.9-23.2-88.7-23.2-21.3 0-37.4 3.2-48.4 9.6-11 6.4-16.5 14.8-16.5 25.2 0 11.6 5.9 19.8 17.7 24.7 11.8 4.8 30.1 9.4 54.8 13.6 24.7 3.9 45 8.3 60.9 13.3 15.9 5 29.5 13.5 40.9 25.5 11.4 12 17.1 29 17.1 51 0 29-12.6 52.2-37.7 69.6-25.1 17.4-59.4 26.1-102.7 26.1-25.3.1-49.9-3.2-73.8-9.8z"/></g></svg>